<svg height="511pt" viewBox="1 -46 511.99953 511" width="511pt" xmlns="http://www.w3.org/2000/svg"><path d="m381.753906 10.5h-158.003906l-120.003906 200.003906 120.003906 200.007813h158.003906l120.003906-200.007813zm0 0" fill="#fd6244"/><path d="m362.003906 200.503906c-5.519531 0-10 4.480469-10 10 0 5.519532 4.480469 10 10 10 5.519532 0 10-4.480468 10-10 0-5.519531-4.480468-10-10-10zm0 0"/><path d="m510.644531 205.480469c-.023437-.039063-.039062-.082031-.0625-.121094l-120.003906-200.003906c-.003906-.011719-.015625-.023438-.023437-.035157-1.808594-2.992187-5.070313-4.792968-8.46875-4.816406-.027344 0-.054688-.003906-.082032-.003906h-252.007812c-.019532 0-.042969.003906-.066406.003906-3.550782.019532-6.746094 1.9375-8.484376 4.816406-.007812.011719-.015624.023438-.023437.035157l-120.003906 200.003906c-.023438.039063-.039063.082031-.058594.121094-1.832031 3.132812-1.792969 6.980469 0 10.050781.019531.039062.035156.082031.058594.117188l120.003906 200.007812c.007813.011719.015625.023438.023437.03125 1.773438 2.9375 5.019532 4.726562 8.542969 4.726562.007813 0 .019531-.003906.027344-.003906h251.964844c.011719 0 .023437.003906.03125.003906 3.53125 0 6.78125-1.792968 8.566406-4.757812l120.003906-200.007812c.023438-.035157.035157-.078126.058594-.117188 1.777344-3.042969 1.84375-6.894531.003906-10.050781zm-128.429687 185.242187-35.117188-61.453125 68.277344-108.761719h68.96875zm-354.558594-170.21875h68.96875l68.277344 108.765625-35.117188 61.453125zm102.128906-190.214844 34.109375 59.695313-67.355469 110.519531h-68.882812zm199.199219 290.21875h-145.96875l-69.101563-110.082031 66.992188-109.925781h150.191406l66.988282 109.925781zm1.503906-240.007812h-148.976562l-34.28125-60h217.542969zm-148.972656 260.007812h148.96875l34.289063 60.003907h-217.542969zm233.945313-140.003906-67.355469-110.523437 34.109375-59.691407 102.128906 170.214844zm0 0"/><path d="m347.03125 236.503906c-4.65625-2.96875-10.839844-1.601562-13.808594 3.054688l-29.070312 45.570312c-2.972656 4.65625-1.605469 10.839844 3.050781 13.8125 4.667969 2.972656 10.84375 1.59375 13.808594-3.054687l29.074219-45.570313c2.96875-4.65625 1.601562-10.839844-3.054688-13.8125zm0 0"/></svg>