<svg height="512" viewBox="0 0 128 128" width="512" xmlns="http://www.w3.org/2000/svg"><g><g><path d="m65.594 19.509 2.734 5.54a1.778 1.778 0 0 0 1.339.973l6.114.888a1.778 1.778 0 0 1 .986 3.032l-4.425 4.313a1.777 1.777 0 0 0 -.511 1.573l1.044 6.09a1.778 1.778 0 0 1 -2.575 1.874l-5.469-2.875a1.773 1.773 0 0 0 -1.654 0l-5.477 2.875a1.778 1.778 0 0 1 -2.579-1.874l1.044-6.09a1.777 1.777 0 0 0 -.511-1.573l-4.425-4.313a1.778 1.778 0 0 1 .986-3.032l6.114-.888a1.778 1.778 0 0 0 1.339-.973l2.734-5.54a1.777 1.777 0 0 1 3.192 0z" fill="#ffe94e"/><path d="m18.518 64h30.288v45.482h-30.288z" fill="#ff8393"/><path d="m20.087 80.764h39.482v11.955h-39.482z" fill="#ea1c81" transform="matrix(0 1 -1 0 126.569 46.913)"/><path d="m48.806 51.636h30.388v57.846h-30.388z" fill="#01ebcd"/><path d="m44.174 74.462h51.847v12.194h-51.847z" fill="#00c5ca" transform="matrix(0 1 -1 0 150.656 10.462)"/><path d="m79.194 73.735h30.288v35.747h-30.288z" fill="#b373f0"/><path d="m85.537 85.537h29.747v12.144h-29.747z" fill="#544ec7" transform="matrix(0 1 -1 0 192.019 -8.802)"/><g fill="#f1f3f8"><path d="m65.822 89.055h-2.922v-11.022a10.085 10.085 0 0 1 -3.778 2.217v-2.65a8.47 8.47 0 0 0 2.488-1.42 5.4 5.4 0 0 0 1.842-2.441h2.373z"/><path d="m38.681 91.685v2.715h-10.251a7.057 7.057 0 0 1 1-2.919 19.372 19.372 0 0 1 3.289-3.658 20.72 20.72 0 0 0 2.424-2.5 3.216 3.216 0 0 0 .6-1.79 2.036 2.036 0 0 0 -.525-1.5 2.232 2.232 0 0 0 -2.909.026 2.835 2.835 0 0 0 -.625 1.832l-2.911-.291a4.78 4.78 0 0 1 1.634-3.466 5.493 5.493 0 0 1 3.435-1.051 4.961 4.961 0 0 1 3.548 1.217 3.992 3.992 0 0 1 1.291 3.029 5.277 5.277 0 0 1 -.369 1.961 8.012 8.012 0 0 1 -1.171 1.952 18.786 18.786 0 0 1 -1.915 1.946q-1.385 1.269-1.754 1.686a4.987 4.987 0 0 0 -.6.812z"/><path d="m89.27 95.09 2.831-.344a2.679 2.679 0 0 0 .728 1.655 2.06 2.06 0 0 0 2.961-.114 2.664 2.664 0 0 0 .619-1.853 2.48 2.48 0 0 0 -.593-1.748 1.891 1.891 0 0 0 -1.447-.645 5.084 5.084 0 0 0 -1.342.218l.323-2.383a2.562 2.562 0 0 0 1.81-.515 1.834 1.834 0 0 0 .625-1.452 1.659 1.659 0 0 0 -.458-1.228 1.643 1.643 0 0 0 -1.218-.458 1.762 1.762 0 0 0 -1.28.52 2.444 2.444 0 0 0 -.645 1.52l-2.7-.458a6.025 6.025 0 0 1 .849-2.212 3.835 3.835 0 0 1 1.581-1.3 5.328 5.328 0 0 1 2.275-.473 4.539 4.539 0 0 1 3.455 1.373 3.478 3.478 0 0 1 -1.124 5.745 3.554 3.554 0 0 1 2.1 1.26 3.651 3.651 0 0 1 .786 2.362 4.583 4.583 0 0 1 -1.468 3.424 5.478 5.478 0 0 1 -7.087.224 4.682 4.682 0 0 1 -1.581-3.118z"/></g><path d="m72.9 29.522-3.663-.532a4.77 4.77 0 0 1 -3.6-2.613l-1.637-3.319v14.655a4.782 4.782 0 0 1 2.223.549l3.277 1.722-.626-3.65a4.775 4.775 0 0 1 1.374-4.228z" fill="#ffc612"/></g><g><path d="m54.445 35.532-1.045 6.09a3.523 3.523 0 0 0 5.118 3.719l5.5-2.875 5.469 2.875a3.528 3.528 0 0 0 5.113-3.719l-1.037-6.114 4.425-4.308a3.527 3.527 0 0 0 -1.955-6.016l-6.135-.9-2.735-5.54a3.527 3.527 0 0 0 -6.326 0l-1.1 2.237a1.75 1.75 0 0 0 3.139 1.549l1.152-2.237 2.735 5.539a3.523 3.523 0 0 0 2.656 1.931l6.13.936-4.428 4.301a3.525 3.525 0 0 0 -1.015 3.122l1.005 6.119-5.469-2.875a3.525 3.525 0 0 0 -3.284 0l-5.509 2.846 1.051-6.089a3.528 3.528 0 0 0 -1.021-3.123l-4.408-4.36 6.114-.889a1.75 1.75 0 0 0 -.5-3.463l-6.115.889a3.527 3.527 0 0 0 -1.958 6.023z"/><path d="m31.5 65.75h.917a1.75 1.75 0 0 0 0-3.5h-.917a1.75 1.75 0 0 0 0 3.5z"/><path d="m79.194 93a1.75 1.75 0 0 0 -1.75 1.75v.75a1.75 1.75 0 0 0 3.5 0v-.75a1.749 1.749 0 0 0 -1.75-1.75z"/><path d="m109.482 71.985h-22.982a1.75 1.75 0 0 0 0 3.5h21.232v32.247h-26.788v-5.857a1.75 1.75 0 0 0 -3.5 0v5.857h-26.888v-54.346h26.888v35.239a1.75 1.75 0 0 0 3.5 0v-36.989a1.749 1.749 0 0 0 -1.75-1.75h-30.388a1.749 1.749 0 0 0 -1.75 1.75v10.614h-7.723a1.75 1.75 0 0 0 0 3.5h7.723v41.982h-26.788v-41.982h4.607a1.75 1.75 0 0 0 0-3.5h-6.357a1.749 1.749 0 0 0 -1.75 1.75v45.482a1.749 1.749 0 0 0 1.75 1.75h90.964a1.749 1.749 0 0 0 1.75-1.75v-35.747a1.75 1.75 0 0 0 -1.75-1.75z"/><path d="m65.822 89.055v-15.32h-2.373a5.4 5.4 0 0 1 -1.842 2.441 8.458 8.458 0 0 1 -2.488 1.42v2.654a10.085 10.085 0 0 0 3.781-2.217v11.022z"/><path d="m32.718 87.823a19.432 19.432 0 0 0 -3.289 3.659 7.057 7.057 0 0 0 -1 2.919h10.252v-2.716h-5.807a4.987 4.987 0 0 1 .6-.812q.369-.417 1.754-1.686a18.786 18.786 0 0 0 1.915-1.946 8.012 8.012 0 0 0 1.171-1.952 5.277 5.277 0 0 0 .369-1.961 4 4 0 0 0 -1.29-3.029 4.965 4.965 0 0 0 -3.549-1.218 5.493 5.493 0 0 0 -3.435 1.051 4.782 4.782 0 0 0 -1.636 3.468l2.914.292a2.835 2.835 0 0 1 .625-1.832 2.232 2.232 0 0 1 2.909-.026 2.036 2.036 0 0 1 .525 1.5 3.216 3.216 0 0 1 -.6 1.79 20.662 20.662 0 0 1 -2.428 2.499z"/><path d="m94.265 96.974a1.992 1.992 0 0 1 -1.436-.573 2.679 2.679 0 0 1 -.728-1.655l-2.831.344a4.682 4.682 0 0 0 1.582 3.117 5.478 5.478 0 0 0 7.087-.224 4.583 4.583 0 0 0 1.468-3.424 3.651 3.651 0 0 0 -.786-2.362 3.554 3.554 0 0 0 -2.1-1.26 3.477 3.477 0 0 0 1.124-5.744 4.535 4.535 0 0 0 -3.455-1.374 5.32 5.32 0 0 0 -2.274.473 3.831 3.831 0 0 0 -1.582 1.3 6.025 6.025 0 0 0 -.849 2.212l2.7.458a2.444 2.444 0 0 1 .645-1.52 1.762 1.762 0 0 1 1.28-.52 1.643 1.643 0 0 1 1.218.458 1.659 1.659 0 0 1 .458 1.228 1.834 1.834 0 0 1 -.625 1.452 2.562 2.562 0 0 1 -1.811.515l-.322 2.383a5.084 5.084 0 0 1 1.342-.218 1.891 1.891 0 0 1 1.447.645 2.48 2.48 0 0 1 .593 1.748 2.664 2.664 0 0 1 -.619 1.853 1.973 1.973 0 0 1 -1.526.688z"/></g></g></svg>